<svg xmlns="http://www.w3.org/2000/svg" width="19.317" height="33.209" viewBox="0 0 19.317 33.209">
  <g id="Group_2235" data-name="Group 2235" transform="translate(0)">
    <path id="Path_332" data-name="Path 332" d="M161.138,236.268h-9.571a1.661,1.661,0,0,0-1.659,1.659v4.251a1.661,1.661,0,0,0,1.659,1.659h2.887l-.681,6.777a2.741,2.741,0,0,0,0,.518,2.592,2.592,0,1,0,5.157-.518l-.681-6.777h2.888a1.661,1.661,0,0,0,1.659-1.659v-4.251A1.661,1.661,0,0,0,161.138,236.268Zm-2.768,6.024a.533.533,0,1,1,.533-.533A.533.533,0,0,1,158.371,242.292Zm2.228,0a.533.533,0,1,1,.533-.533A.533.533,0,0,1,160.6,242.292Zm.533-2.564a.549.549,0,0,1-.55.549h-8.46a.549.549,0,0,1-.55-.549v-1.366a.55.55,0,0,1,.55-.549h8.46a.55.55,0,0,1,.55.549v1.366Z" transform="translate(-146.695 -220.255)" fill="#fff"/>
    <g id="Group_661" data-name="Group 661" transform="translate(2.134)">
      <path id="Path_333" data-name="Path 333" d="M135.686,0H134.15a.17.17,0,0,0-.17.17V9.919a.17.17,0,0,0,.17.17h1.536a.17.17,0,0,0,.17-.17V.17A.17.17,0,0,0,135.686,0Z" transform="translate(-133.98)" fill="#fff"/>
      <path id="Path_334" data-name="Path 334" d="M178.395,0h-.65a.17.17,0,0,0-.17.17V9.919a.17.17,0,0,0,.17.17h.65a.17.17,0,0,0,.17-.17V.17A.17.17,0,0,0,178.395,0Z" transform="translate(-174.62)" fill="#fff"/>
      <path id="Path_335" data-name="Path 335" d="M206.925,0h-.65a.17.17,0,0,0-.17.17V9.919a.17.17,0,0,0,.17.17h.65a.17.17,0,0,0,.17-.17V.17A.17.17,0,0,0,206.925,0Z" transform="translate(-201.217)" fill="#fff"/>
      <path id="Path_336" data-name="Path 336" d="M301.782,0h-.65a.17.17,0,0,0-.17.17V9.919a.17.17,0,0,0,.17.17h.65a.17.17,0,0,0,.17-.17V.17A.17.17,0,0,0,301.782,0Z" transform="translate(-289.645)" fill="#fff"/>
      <path id="Path_337" data-name="Path 337" d="M274.962,0h-.65a.17.17,0,0,0-.17.17V9.919a.17.17,0,0,0,.17.17h.65a.17.17,0,0,0,.17-.17V.17A.17.17,0,0,0,274.962,0Z" transform="translate(-264.643)" fill="#fff"/>
      <path id="Path_338" data-name="Path 338" d="M330.051,0h-1.536a.17.17,0,0,0-.17.17V9.919a.17.17,0,0,0,.17.17h1.536a.17.17,0,0,0,.17-.17V.17A.17.17,0,0,0,330.051,0Z" transform="translate(-315.172)" fill="#fff"/>
      <path id="Path_339" data-name="Path 339" d="M236.465,0h-1.536a.17.17,0,0,0-.17.17V9.919a.17.17,0,0,0,.17.17h1.536a.17.17,0,0,0,.17-.17V.17A.17.17,0,0,0,236.465,0Z" transform="translate(-227.929)" fill="#fff"/>
    </g>
    <path id="Path_340" data-name="Path 340" d="M121.129,167.314a.679.679,0,0,0-.679.679v.294h-16.6v-.294a.679.679,0,1,0-1.357,0v1.945a.679.679,0,1,0,1.357,0v-.294h16.6v.294a.679.679,0,0,0,1.357,0v-1.945A.679.679,0,0,0,121.129,167.314Z" transform="translate(-102.491 -155.975)" fill="#fff"/>
  </g>
</svg>
